<svg width="64" height="64" viewBox="0 0 64 64" fill="none" xmlns="http://www.w3.org/2000/svg">
<path d="M31.8712 0.0656738C33.2163 0.838563 34.3331 1.94947 35.1096 3.28686C35.886 4.62426 36.2948 6.14109 36.2948 7.68508C36.2948 9.22907 35.886 10.7459 35.1096 12.0833C34.3331 13.4207 33.2163 14.5316 31.8712 15.3045C36.3133 15.3045 40.5734 17.058 43.7145 20.1792C46.8555 23.3004 48.6201 27.5337 48.6201 31.9478C48.6201 36.3619 46.8555 40.5952 43.7145 43.7164C40.5734 46.8376 36.3133 48.5911 31.8712 48.5911C30.5256 49.3608 29.408 50.4693 28.6308 51.8049C27.8537 53.1405 27.4445 54.656 27.4445 56.1988C27.4445 57.7416 27.8537 59.2571 28.6308 60.5927C29.408 61.9283 30.5256 63.0368 31.8712 63.8065C40.2269 63.5815 48.1643 60.125 53.9943 54.1727C59.8242 48.2203 63.0863 40.2422 63.0863 31.9361C63.0863 23.63 59.8242 15.6518 53.9943 9.69953C48.1643 3.74721 40.2269 0.290718 31.8712 0.0656738Z" fill="#00B5E2"/>
<path d="M32.0647 63.8765C30.7191 63.1068 29.6015 61.9983 28.8243 60.6627C28.0472 59.3271 27.6379 57.8116 27.6379 56.2688C27.6379 54.726 28.0472 53.2104 28.8243 51.8748C29.6015 50.5392 30.7191 49.4307 32.0647 48.6611C27.6226 48.6611 23.3625 46.9076 20.2214 43.7863C17.0804 40.6651 15.3158 36.4318 15.3158 32.0177C15.3158 27.6037 17.0804 23.3704 20.2214 20.2491C23.3625 17.1279 27.6226 15.3744 32.0647 15.3744C33.4098 14.6015 34.5266 13.4906 35.3031 12.1532C36.0795 10.8159 36.4883 9.29902 36.4883 7.75503C36.4883 6.21103 36.0795 4.6942 35.3031 3.35681C34.5266 2.01941 33.4098 0.90851 32.0647 0.13562C23.709 0.360664 15.7715 3.81716 9.94161 9.76948C4.11169 15.7218 0.849609 23.7 0.849609 32.006C0.849609 40.3121 4.11169 48.2903 9.94161 54.2426C15.7715 60.1949 23.709 63.6514 32.0647 63.8765Z" fill="#351F65"/>
</svg>
