<?xml version="1.0" encoding="UTF-8"?>
<svg version="1.1" xmlns="http://www.w3.org/2000/svg" width="208" height="148">
<path d="M0 0 C7.13270394 2.15908876 11.25194736 13.46821012 14.60546875 19.40625 C15.89501827 21.67233902 17.18537204 23.93797057 18.4765625 26.203125 C19.10143555 27.30068115 19.72630859 28.3982373 20.37011719 29.52905273 C22.44702738 33.1416468 24.58037096 36.71646385 26.7355957 40.28271484 C29.76015925 45.29461305 32.72011913 50.34529819 35.68847656 55.390625 C38.57342208 60.28805922 41.47404765 65.17467973 44.41934204 70.036026 C45.8961016 72.47504408 47.36575536 74.91830969 48.83502197 77.36184692 C49.55209821 78.55001594 50.27255704 79.73615064 50.996521 80.9201355 C52.01547384 82.58731705 53.02164599 84.26228919 54.02734375 85.9375 C54.60967773 86.89720703 55.19201172 87.85691406 55.79199219 88.84570312 C57.27199333 91.86872889 57.9045259 94.30692814 58.16796875 97.65625 C56.03753397 102.22146739 56.03753397 102.22146739 53.16796875 103.65625 C51.70738648 103.75663795 50.24235827 103.79564076 48.77835083 103.80342102 C47.8558252 103.81057632 46.93329956 103.81773163 45.9828186 103.82510376 C44.9677121 103.82779266 43.95260559 103.83048157 42.90673828 103.83325195 C41.83997864 103.83982315 40.77321899 103.84639435 39.6741333 103.85316467 C36.1330153 103.87292633 32.59193973 103.88456553 29.05078125 103.89453125 C27.84402615 103.89860678 26.63727104 103.9026823 25.3939476 103.90688133 C19.00921549 103.92775244 12.62450496 103.94205073 6.23974609 103.95141602 C-0.36714505 103.9624939 -6.97370064 103.99690711 -13.58047295 104.03658772 C-18.65044803 104.06268253 -23.72034223 104.07110142 -28.79037857 104.07469749 C-31.22650549 104.07958045 -33.66262841 104.09124261 -36.09869003 104.10973549 C-39.50340445 104.13397882 -42.90723815 104.1331889 -46.31201172 104.1262207 C-47.32306976 104.13903076 -48.33412781 104.15184082 -49.37582397 104.16503906 C-56.19632021 104.11401337 -56.19632021 104.11401337 -59.43533325 101.78166199 C-61.07469587 99.28697741 -61.67494802 97.6408313 -61.83203125 94.65625 C-59.5649546 87.49020312 -54.62778628 80.8897428 -50.74609375 74.49609375 C-46.91911424 68.17067881 -43.19350019 61.78535139 -39.45703125 55.40625 C-39.08530792 54.77224274 -38.71358459 54.13823547 -38.33059692 53.48501587 C-34.30090573 46.61171107 -30.29027001 39.72842983 -26.3293457 32.81518555 C-22.12245175 25.47958575 -17.77523132 18.25029799 -13.26953125 11.09375 C-12.75608154 10.27696777 -12.24263184 9.46018555 -11.71362305 8.61865234 C-11.23578369 7.86664551 -10.75794434 7.11463867 -10.265625 6.33984375 C-9.6322522 5.34295532 -9.6322522 5.34295532 -8.98608398 4.32592773 C-6.38570002 0.5637052 -4.47771059 0.34643796 0 0 Z M-7.58984375 29.76171875 C-9.49814702 32.67218128 -8.9871307 34.90714516 -8.70703125 38.34375 C-8.65353516 39.02131348 -8.60003906 39.69887695 -8.54492188 40.39697266 C-7.79144144 49.21152859 -6.67404102 57.99965685 -5.55078125 66.7734375 C-5.43669922 67.66659668 -5.32261719 68.55975586 -5.20507812 69.47998047 C-4.93364216 71.69441965 -4.93364216 71.69441965 -3.83203125 73.65625 C-2.51203125 73.65625 -1.19203125 73.65625 0.16796875 73.65625 C1.87010048 65.95186425 2.91619865 58.24350114 3.79296875 50.40625 C3.92703125 49.2615625 4.06109375 48.116875 4.19921875 46.9375 C5.7675219 38.1518295 5.7675219 38.1518295 4.16796875 29.78125 C0.55082241 27.74660518 -4.02481397 27.51971113 -7.58984375 29.76171875 Z M-6.83203125 81.65625 C-7.4155363 84.11334375 -7.4155363 84.11334375 -6.83203125 86.65625 C-5.25507493 88.7348108 -5.25507493 88.7348108 -2.83203125 89.65625 C-0.43939718 88.98853817 1.3889426 88.43527615 3.16796875 86.65625 C3.50140426 84.19832971 3.50140426 84.19832971 3.16796875 81.65625 C-0.93116733 78.92349261 -2.73289517 78.92349261 -6.83203125 81.65625 Z " fill="#DA1B23" transform="translate(105.83203125,21.34375)"/>
<path d="M0 0 C2 3 2 3 1.875 5.4375 C0.73061063 8.78892601 -0.08992842 9.91282469 -3 12 C-6.5133302 12.59405891 -9.99665415 12.50451204 -13.55175781 12.45410156 C-14.62523468 12.45468567 -15.69871155 12.45526978 -16.80471802 12.45587158 C-20.35451543 12.45308387 -23.90347419 12.42195805 -27.453125 12.390625 C-29.91363059 12.38316509 -32.37414211 12.37747098 -34.83465576 12.37347412 C-41.31209707 12.35819829 -47.78917987 12.31889906 -54.26647949 12.2746582 C-60.87552032 12.23374789 -67.48461906 12.21547213 -74.09375 12.1953125 C-87.062653 12.15240722 -100.03130743 12.08490024 -113 12 C-113 11.67 -113 11.34 -113 11 C-111.85789063 10.98969254 -110.71578125 10.97938507 -109.5390625 10.96876526 C-98.71291713 10.87050195 -87.88682251 10.76772417 -77.0607605 10.66066074 C-71.49657972 10.60577571 -65.93239349 10.55241571 -60.36816406 10.50268555 C-54.98645027 10.45452809 -49.60479138 10.40217588 -44.22314453 10.34705925 C-42.18214304 10.32686561 -40.14112664 10.30811859 -38.10009766 10.29092598 C-28.64224001 10.21040191 -19.18867719 10.10569778 -9.7421875 9.60522461 C-8.48003418 9.53847031 -7.21788086 9.471716 -5.91748047 9.40293884 C-2.88012029 9.28259775 -2.88012029 9.28259775 -1 7 C-0.59952556 4.67724823 -0.2602896 2.34260643 0 0 Z " fill="#992221" transform="translate(162,113)"/>
<path d="M0 0 C2.71449013 2.44304112 4.36686283 5.10404374 6.1796875 8.26171875 C7.07880859 9.81729492 7.07880859 9.81729492 7.99609375 11.40429688 C8.61613281 12.48775391 9.23617187 13.57121094 9.875 14.6875 C11.10038244 16.8170857 12.32692278 18.94600561 13.5546875 21.07421875 C14.42818848 22.59474854 14.42818848 22.59474854 15.31933594 24.14599609 C16.81960968 26.69367187 18.39044053 29.17041041 20.0078125 31.64453125 C20.66523438 32.75183594 21.32265625 33.85914063 22 35 C21.67 35.66 21.34 36.32 21 37 C17.81227007 34.87484671 16.75079247 33.33484279 15 30 C15 29.34 15 28.68 15 28 C14.01 27.67 13.02 27.34 12 27 C11.67 24.36 11.34 21.72 11 19 C10.34 19 9.68 19 9 19 C7.4921875 16.8828125 7.4921875 16.8828125 5.875 14.125 C5.33617187 13.22007813 4.79734375 12.31515625 4.2421875 11.3828125 C3 9 3 9 3 7 C2.01 6.67 1.02 6.34 0 6 C-0.38218767 4.34385343 -0.71395102 2.67542976 -1 1 C-0.67 0.67 -0.34 0.34 0 0 Z " fill="#B4141B" transform="translate(140,76)"/>
<path d="M0 0 C3.00186278 2.23542973 4.56420757 3.8959925 5.9375 7.375 C6.02042906 10.85802047 4.9860538 13.65837322 4 17 C3.70913693 19.65314284 3.50471801 22.29691701 3.34375 24.9609375 C3.2303125 25.63382813 3.116875 26.30671875 3 27 C2.34 27.33 1.68 27.66 1 28 C1.33 19.75 1.66 11.5 2 3 C-1.96 3 -5.92 3 -10 3 C-10.33 5.31 -10.66 7.62 -11 10 C-11.66 9.67 -12.32 9.34 -13 9 C-12.52238806 3.62686567 -12.52238806 3.62686567 -10.4375 1.125 C-6.94145033 -0.48856138 -3.72838319 -0.79154167 0 0 Z " fill="#B40F14" transform="translate(108,48)"/>
<path d="M0 0 C3.73258903 0.08790518 4.08952379 0.40637829 7 3.1875 C7.721875 4.280625 8.44375 5.37375 9.1875 6.5 C9.80625 7.4075 10.425 8.315 11.0625 9.25 C11.43375 9.9925 11.805 10.735 12.1875 11.5 C11.8575 12.16 11.5275 12.82 11.1875 13.5 C9.6875 12.125 9.6875 12.125 8.1875 10.5 C8.1875 9.84 8.1875 9.18 8.1875 8.5 C7.5275 8.5 6.8675 8.5 6.1875 8.5 C5.8575 7.51 5.5275 6.52 5.1875 5.5 C3.17241642 4.76676204 3.17241642 4.76676204 1.1875 4.5 C1.1875 3.84 1.1875 3.18 1.1875 2.5 C-0.7925 2.83 -2.7725 3.16 -4.8125 3.5 C-5.1425 5.48 -5.4725 7.46 -5.8125 9.5 C-6.4725 9.5 -7.1325 9.5 -7.8125 9.5 C-8.1425 10.49 -8.4725 11.48 -8.8125 12.5 C-9.4725 12.5 -10.1325 12.5 -10.8125 12.5 C-10.8125 13.16 -10.8125 13.82 -10.8125 14.5 C-11.4725 14.17 -12.1325 13.84 -12.8125 13.5 C-11.6907037 11.7063257 -10.56495517 9.9151227 -9.4375 8.125 C-8.81101562 7.12726562 -8.18453125 6.12953125 -7.5390625 5.1015625 C-4.54930237 0.59662982 -4.54930237 0.59662982 0 0 Z " fill="#B91016" transform="translate(103.8125,21.5)"/>
<path d="M0 0 C0.33 0 0.66 0 1 0 C1.66 5.94 2.32 11.88 3 18 C4.32 18 5.64 18 7 18 C7.66 12.06 8.32 6.12 9 0 C9.33 0 9.66 0 10 0 C10.10635926 6.42882667 10.05873075 12.64761552 9 19 C8 20 8 20 4.9375 20.0625 C3.968125 20.041875 2.99875 20.02125 2 20 C2 19.34 2 18.68 2 18 C1.34 18 0.68 18 0 18 C0 12.06 0 6.12 0 0 Z " fill="#AD161E" transform="translate(99,77)"/>
<path d="M0 0 C3.59255694 3.3541418 5.77835962 7.35582393 8.25 11.5625 C8.72179687 12.34302734 9.19359375 13.12355469 9.6796875 13.92773438 C10.12054688 14.67474609 10.56140625 15.42175781 11.015625 16.19140625 C11.62325684 17.21536499 11.62325684 17.21536499 12.24316406 18.26000977 C12.61779785 19.12130493 12.61779785 19.12130493 13 20 C12.67 20.66 12.34 21.32 12 22 C11.52949219 21.278125 11.05898437 20.55625 10.57421875 19.8125 C9.95160156 18.884375 9.32898438 17.95625 8.6875 17 C8.07261719 16.071875 7.45773438 15.14375 6.82421875 14.1875 C5.92123047 13.1046875 5.92123047 13.1046875 5 12 C4.01 12 3.02 12 2 12 C2 10.02 2 8.04 2 6 C1.34 5.67 0.68 5.34 0 5 C0 3.35 0 1.7 0 0 Z " fill="#BA151E" transform="translate(124,49)"/>
<path d="M0 0 C0.33 1.32 0.66 2.64 1 4 C0.34 4 -0.32 4 -1 4 C-1.12375 4.721875 -1.2475 5.44375 -1.375 6.1875 C-1.9904931 8.95721894 -2.88444374 11.3970354 -4 14 C-4.66 14 -5.32 14 -6 14 C-6.4021875 15.0828125 -6.4021875 15.0828125 -6.8125 16.1875 C-7.99901362 18.99766383 -9.27485639 21.48416557 -11 24 C-11.66 24 -12.32 24 -13 24 C-11.31784705 19.33751086 -8.94630388 15.16580137 -6.5 10.875 C-6.09652344 10.15957031 -5.69304687 9.44414063 -5.27734375 8.70703125 C-3.59332535 5.73359942 -1.89727817 2.84591726 0 0 Z " fill="#B61A22" transform="translate(71,69)"/>
<path d="M0 0 C1.36511719 0.29197266 1.36511719 0.29197266 2.7578125 0.58984375 C3.45648438 0.74582031 4.15515625 0.90179688 4.875 1.0625 C5.205 3.7025 5.535 6.3425 5.875 9.0625 C5.215 9.0625 4.555 9.0625 3.875 9.0625 C3.545 7.4125 3.215 5.7625 2.875 4.0625 C-1.22723585 3.04709888 -1.22723585 3.04709888 -5.125 4.0625 C-5.78055119 6.58983235 -5.78055119 6.58983235 -6.125 9.0625 C-6.785 9.0625 -7.445 9.0625 -8.125 9.0625 C-8.21308512 5.89143561 -8.19970182 3.07166509 -7.125 0.0625 C-4.4030754 -1.2984623 -2.9418043 -0.64116248 0 0 Z " fill="#AE161B" transform="translate(105.125,98.9375)"/>
<path d="M0 0 C1.32 0.33 2.64 0.66 4 1 C2.43387807 4.84411747 -0.02094121 7.15950209 -3 10 C-3.928125 10.928125 -4.85625 11.85625 -5.8125 12.8125 C-6.534375 13.534375 -7.25625 14.25625 -8 15 C-6.62712658 11.30123909 -4.93644547 8.0485524 -2.875 4.6875 C-2.33617188 3.80449219 -1.79734375 2.92148437 -1.2421875 2.01171875 C-0.83226563 1.34785156 -0.42234375 0.68398438 0 0 Z " fill="#BD151D" transform="translate(80,54)"/>
<path d="M0 0 C0.33 0 0.66 0 1 0 C1.37876958 3.31423385 1.26329416 4.64267221 -0.75 7.375 C-1.4925 8.24125 -2.235 9.1075 -3 10 C-4.41737024 12.29364981 -5.70168113 14.63520492 -7 17 C-7.66 17 -8.32 17 -9 17 C-6.84901218 10.93812525 -3.55762971 5.33644457 0 0 Z " fill="#B81016" transform="translate(57,93)"/>
<path d="M0 0 C2 3 2 3 1.75 5.5 C1 8 1 8 -1 11 C-2.87939453 11.34057617 -2.87939453 11.34057617 -5.1328125 11.29296875 C-5.93847656 11.28330078 -6.74414062 11.27363281 -7.57421875 11.26367188 C-8.41597656 11.23853516 -9.25773438 11.21339844 -10.125 11.1875 C-10.97449219 11.17396484 -11.82398438 11.16042969 -12.69921875 11.14648438 C-14.79974837 11.11108219 -16.89995293 11.05727401 -19 11 C-19 10.67 -19 10.34 -19 10 C-17.86820313 9.95101562 -16.73640625 9.90203125 -15.5703125 9.8515625 C-14.08851661 9.77653486 -12.606747 9.70098703 -11.125 9.625 C-10.37863281 9.5940625 -9.63226563 9.563125 -8.86328125 9.53125 C-4.46526812 9.44356169 -4.46526812 9.44356169 -1 7 C-0.59952556 4.67724823 -0.2602896 2.34260643 0 0 Z " fill="#AE161D" transform="translate(162,113)"/>
<path d="M0 0 C2.49552403 2.27597646 4.06622986 4.60721178 5.6875 7.5625 C6.12449219 8.34753906 6.56148438 9.13257813 7.01171875 9.94140625 C8 12 8 12 8 14 C7.34 14 6.68 14 6 14 C4.4921875 11.953125 4.4921875 11.953125 2.875 9.25 C2.33617188 8.36828125 1.79734375 7.4865625 1.2421875 6.578125 C0 4 0 4 0 0 Z " fill="#AD1416" transform="translate(116,35)"/>
<path d="M0 0 C0 0.33 0 0.66 0 1 C-1.65 1 -3.3 1 -5 1 C-5.66 3.64 -6.32 6.28 -7 9 C-7.66 9 -8.32 9 -9 9 C-9.08808512 5.82893561 -9.07470182 3.00916509 -8 0 C-5.13822943 -1.43088528 -3.06624227 -0.59991697 0 0 Z " fill="#BF131A" transform="translate(106,99)"/>
<path d="M0 0 C0.93616694 2.52481387 1.17818983 3.59474972 0.07421875 6.10546875 C-0.38339844 6.79253906 -0.84101562 7.47960938 -1.3125 8.1875 C-1.76238281 8.88230469 -2.21226563 9.57710937 -2.67578125 10.29296875 C-4 12 -4 12 -6 13 C-4.58707905 8.1725201 -2.57025846 4.2837641 0 0 Z " fill="#AE1515" transform="translate(90,36)"/>
<path d="M0 0 C0.99 0.33 1.98 0.66 3 1 C2.05065487 2.67180274 1.09026687 4.33733936 0.125 6 C-0.40867187 6.928125 -0.94234375 7.85625 -1.4921875 8.8125 C-1.98976562 9.534375 -2.48734375 10.25625 -3 11 C-3.66 11 -4.32 11 -5 11 C-3.55049545 7.2089881 -1.84827434 3.6125362 0 0 Z " fill="#AD1318" transform="translate(63,82)"/>
<path d="M0 0 C2.74277578 3.19990508 4.6302836 6.00499382 6 10 C4.68 9.34 3.36 8.68 2 8 C2 6.68 2 5.36 2 4 C1.34 4 0.68 4 0 4 C0 2.68 0 1.36 0 0 Z " fill="#AF1D22" transform="translate(149,91)"/>
<path d="M0 0 C0.99 0.33 1.98 0.66 3 1 C3 1.66 3 2.32 3 3 C2.34 3 1.68 3 1 3 C0.67 3.99 0.34 4.98 0 6 C-0.66 6 -1.32 6 -2 6 C-2 6.66 -2 7.32 -2 8 C-2.66 7.67 -3.32 7.34 -4 7 C-2.68 4.69 -1.36 2.38 0 0 Z " fill="#BB1C22" transform="translate(95,28)"/>
<path d="M0 0 C0.33 0 0.66 0 1 0 C1.3125 2.3125 1.3125 2.3125 1 5 C-1.5 6.8125 -1.5 6.8125 -4 8 C-2.87548273 5.0280615 -1.77706209 2.66559313 0 0 Z " fill="#B41E23" transform="translate(57,93)"/>
<path d="M0 0 C2.79872437 2.52788007 4.45773019 4.20411134 5 8 C2 6 2 6 1 3 C0.34 3 -0.32 3 -1 3 C-0.67 2.01 -0.34 1.02 0 0 Z " fill="#BA1B1F" transform="translate(111,27)"/>
</svg>
